<svg width="34" height="34" viewBox="0 0 34 34" fill="none" xmlns="http://www.w3.org/2000/svg">
    <path d="M17 9.78125V11.8437C15.1369 11.8437 13.2916 11.9207 11.467 12.072C9.91187 12.2012 8.75 13.5254 8.75 15.086V18.5414M17 11.8451C18.8631 11.8451 20.7084 11.9207 22.533 12.072C24.0881 12.2012 25.25 13.5254 25.25 15.086V18.5414M21.125 11.8451V9.78262M12.875 11.8451V9.78262M29.375 23.1889L27.3125 24.2201C26.6721 24.5403 25.966 24.707 25.25 24.707C24.534 24.707 23.8279 24.5403 23.1875 24.2201C22.5471 23.8999 21.841 23.7332 21.125 23.7332C20.409 23.7332 19.7029 23.8999 19.0625 24.2201C18.4221 24.5403 17.716 24.707 17 24.707C16.284 24.707 15.5779 24.5403 14.9375 24.2201C14.2971 23.8999 13.591 23.7332 12.875 23.7332C12.159 23.7332 11.4529 23.8999 10.8125 24.2201C10.1721 24.5403 9.46598 24.707 8.75 24.707C8.03402 24.707 7.32788 24.5403 6.6875 24.2201L4.625 23.1875M25.25 18.54C22.5132 18.1999 19.7579 18.03 17 18.0312C14.206 18.0312 11.4532 18.2031 8.75 18.54C8.21607 18.6072 7.68299 18.681 7.15087 18.7614C5.681 18.9814 4.625 20.2656 4.625 21.7506V28.8594C4.62536 29.2694 4.7885 29.6625 5.07856 29.9523C5.36861 30.2421 5.76186 30.4049 6.17188 30.4049H27.8281C28.682 30.4049 29.375 29.7119 29.375 28.8594V21.7506C29.375 20.2642 28.3204 18.98 26.8491 18.76C26.3184 18.6802 25.7862 18.6074 25.25 18.54ZM17.3644 4.77625C17.4366 4.84833 17.4857 4.94021 17.5057 5.04025C17.5256 5.14029 17.5154 5.24399 17.4764 5.33825C17.4374 5.43251 17.3713 5.51307 17.2865 5.56976C17.2017 5.62644 17.102 5.6567 17 5.6567C16.898 5.6567 16.7983 5.62644 16.7135 5.56976C16.6287 5.51307 16.5626 5.43251 16.5236 5.33825C16.4846 5.24399 16.4744 5.14029 16.4943 5.04025C16.5143 4.94021 16.5634 4.84833 16.6356 4.77625L17 4.41187L17.3644 4.77625ZM13.2394 4.77625C13.3116 4.84833 13.3607 4.94021 13.3807 5.04025C13.4006 5.14029 13.3904 5.24399 13.3514 5.33825C13.3124 5.43251 13.2463 5.51307 13.1615 5.56976C13.0767 5.62644 12.977 5.6567 12.875 5.6567C12.773 5.6567 12.6733 5.62644 12.5885 5.56976C12.5037 5.51307 12.4376 5.43251 12.3986 5.33825C12.3596 5.24399 12.3494 5.14029 12.3693 5.04025C12.3893 4.94021 12.4384 4.84833 12.5106 4.77625L12.875 4.41187L13.2394 4.77625ZM21.4894 4.77625C21.5616 4.84833 21.6107 4.94021 21.6307 5.04025C21.6506 5.14029 21.6404 5.24399 21.6014 5.33825C21.5624 5.43251 21.4963 5.51307 21.4115 5.56976C21.3267 5.62644 21.227 5.6567 21.125 5.6567C21.023 5.6567 20.9233 5.62644 20.8385 5.56976C20.7537 5.51307 20.6876 5.43251 20.6486 5.33825C20.6096 5.24399 20.5994 5.14029 20.6193 5.04025C20.6393 4.94021 20.6884 4.84833 20.7606 4.77625L21.125 4.41187L21.4894 4.77625Z" stroke="white" stroke-width="1.5" stroke-linecap="round" stroke-linejoin="round"/>
</svg>