<svg width="34" height="34" viewBox="0 0 34 34" fill="none" xmlns="http://www.w3.org/2000/svg">
    <path d="M21.125 14.9375C21.125 16.0315 20.6904 17.0807 19.9168 17.8543C19.1432 18.6279 18.094 19.0625 17 19.0625C15.906 19.0625 14.8568 18.6279 14.0832 17.8543C13.3096 17.0807 12.875 16.0315 12.875 14.9375C12.875 13.8435 13.3096 12.7943 14.0832 12.0207C14.8568 11.2471 15.906 10.8125 17 10.8125C18.094 10.8125 19.1432 11.2471 19.9168 12.0207C20.6904 12.7943 21.125 13.8435 21.125 14.9375Z" stroke="white" stroke-width="1.5" stroke-linecap="round" stroke-linejoin="round"/>
    <path d="M27.3125 14.9375C27.3125 24.7578 17 30.4062 17 30.4062C17 30.4062 6.6875 24.7578 6.6875 14.9375C6.6875 12.2025 7.77399 9.57943 9.70796 7.64546C11.6419 5.71149 14.265 4.625 17 4.625C19.735 4.625 22.3581 5.71149 24.292 7.64546C26.226 9.57943 27.3125 12.2025 27.3125 14.9375Z" stroke="white" stroke-width="1.5" stroke-linecap="round" stroke-linejoin="round"/>
</svg>