<svg width="34" height="34" viewBox="0 0 34 34" fill="none" xmlns="http://www.w3.org/2000/svg">
    <path d="M18.0313 4.66625V5.44725C18.0313 5.9065 18.2348 6.341 18.5882 6.63525L20.0567 7.859C20.6644 8.36638 20.7923 9.24775 20.3537 9.90775L19.6524 10.961C19.2705 11.5333 18.7088 11.962 18.056 12.1793L17.8594 12.2453C17.6375 12.3194 17.4358 12.4438 17.2697 12.6086C17.1037 12.7734 16.9779 12.9742 16.9021 13.1956C16.8263 13.4169 16.8025 13.6527 16.8326 13.8847C16.8627 14.1167 16.9459 14.3386 17.0757 14.5333C17.583 15.2964 17.308 16.3304 16.4885 16.7401L12.875 18.5469L13.4567 20.003C13.574 20.2987 13.58 20.627 13.4737 20.9269C13.3674 21.2267 13.1559 21.4779 12.8785 21.6337C12.6012 21.7895 12.2767 21.8395 11.9653 21.7742C11.6539 21.709 11.3767 21.533 11.1852 21.279L10.2515 20.0333C10.0933 19.8224 9.8838 19.6555 9.64293 19.5483C9.40206 19.4412 9.1378 19.3974 8.87524 19.4211C8.61268 19.4448 8.36053 19.5352 8.14273 19.6837C7.92493 19.8322 7.7487 20.034 7.63078 20.2698L6.68753 22.1563L5.84603 22.3666M18.0313 4.66625C15.8575 4.48384 13.6741 4.88066 11.7023 5.8139C9.73061 6.74713 8.0406 8.18499 6.80357 9.98177C5.56654 11.7786 4.82644 13.8704 4.65829 16.0454C4.49013 18.2203 4.89988 20.4011 5.84603 22.3666M18.0313 4.66625C20.1869 4.84603 22.2577 5.58905 24.0372 6.81863C25.8168 8.04821 27.2431 9.72276 28.1737 11.6754C29.1044 13.628 29.507 15.7904 29.3414 17.9471C29.1759 20.1038 28.4479 22.1795 27.23 23.9671L26.9867 23.2398C26.7812 22.6238 26.3871 22.0881 25.8602 21.7085C25.3333 21.329 24.7004 21.1248 24.051 21.125H23.1875L22.742 20.6795C22.5182 20.4553 22.2444 20.2876 21.943 20.1901C21.6416 20.0927 21.3214 20.0682 21.0088 20.1189C20.6961 20.1695 20.4 20.2937 20.1448 20.4813C19.8896 20.669 19.6826 20.9146 19.541 21.1979L19.4915 21.2983C19.3565 21.5686 19.1667 21.808 18.9343 22.0011C18.7019 22.1943 18.4318 22.337 18.1413 22.4203L16.78 22.808C16.0238 23.0239 15.5508 23.7733 15.68 24.5501L15.7804 25.1524C15.8904 25.8041 16.4542 26.2813 17.1142 26.2813C18.2774 26.2813 19.3114 27.0265 19.6785 28.1306L19.9742 29.0148M5.84603 22.3666C7.07858 24.9293 9.15615 26.9894 11.7292 28.2002C14.3023 29.411 17.2139 29.6986 19.9742 29.0148M19.9742 29.0148C22.9303 28.2814 25.5128 26.485 27.2287 23.9685M22.1563 12.875C22.1563 14.107 21.6159 15.2125 20.7593 15.9688" stroke="white" stroke-width="1.5" stroke-linecap="round" stroke-linejoin="round"/>
</svg>