<svg width="34" height="34" viewBox="0 0 34 34" fill="none" xmlns="http://www.w3.org/2000/svg">
    <path d="M30.4062 9.78125V24.2188C30.4062 25.0393 30.0803 25.8262 29.5001 26.4064C28.9199 26.9866 28.133 27.3125 27.3125 27.3125H6.6875C5.86699 27.3125 5.08008 26.9866 4.49989 26.4064C3.9197 25.8262 3.59375 25.0393 3.59375 24.2188V9.78125M30.4062 9.78125C30.4062 8.96074 30.0803 8.17383 29.5001 7.59364C28.9199 7.01345 28.133 6.6875 27.3125 6.6875H6.6875C5.86699 6.6875 5.08008 7.01345 4.49989 7.59364C3.9197 8.17383 3.59375 8.96074 3.59375 9.78125M30.4062 9.78125V10.1154C30.4063 10.6436 30.2711 11.163 30.0136 11.6242C29.7561 12.0853 29.3847 12.4729 28.935 12.7499L18.6225 19.0955C18.1347 19.396 17.573 19.5551 17 19.5551C16.427 19.5551 15.8653 19.396 15.3775 19.0955L5.065 12.7512C4.61527 12.4742 4.24395 12.0867 3.98641 11.6255C3.72887 11.1644 3.59369 10.645 3.59375 10.1167V9.78125" stroke="white" stroke-width="1.5" stroke-linecap="round" stroke-linejoin="round"/>
</svg>