<svg width="24" height="29" viewBox="0 0 24 29" fill="none" xmlns="http://www.w3.org/2000/svg">
    <path d="M17.1563 6.25C17.1563 7.61752 16.613 8.92903 15.646 9.89602C14.6791 10.863 13.3676 11.4062 12 11.4062C10.6325 11.4062 9.32099 10.863 8.35401 9.89602C7.38703 8.92903 6.84378 7.61752 6.84378 6.25C6.84378 4.88248 7.38703 3.57097 8.35401 2.60398C9.32099 1.637 10.6325 1.09375 12 1.09375C13.3676 1.09375 14.6791 1.637 15.646 2.60398C16.613 3.57097 17.1563 4.88248 17.1563 6.25ZM1.6889 25.6623C1.73309 22.9567 2.83887 20.377 4.76777 18.4793C6.69668 16.5817 9.29415 15.5181 12 15.5181C14.7059 15.5181 17.3034 16.5817 19.2323 18.4793C21.1612 20.377 22.267 22.9567 22.3112 25.6623C19.0763 27.1456 15.5587 27.9111 12 27.9062C8.32053 27.9062 4.82803 27.1033 1.6889 25.6623Z" stroke="white" stroke-width="1.5" stroke-linecap="round" stroke-linejoin="round"/>
</svg>